{"title":"Doctor Who: Earth Conquest (2014) [Recode of docfester source]","uid":10947006,"size":310617219,"categoryP":"video","categoryS":"tv_shows","magnet":"?xt=urn:btih:561758173df4ea731203d6c2f88a6563aba60cc3&amp;dn=Doctor+Who%3A+Earth+Conquest+%282014%29+%5BRecode+of+docfester+source%5D&amp;tr=udp%3A%2F%2Ftracker.openbittorrent.com%3A80&amp;tr=udp%3A%2F%2Fopen.demonii.com%3A1337&amp;tr=udp%3A%2F%2Ftracker.coppersurfer.tk%3A6969&amp;tr=udp%3A%2F%2Fexodus.desync.com%3A6969","seeders":2,"leechers":0,"uploader":"BrezNJ","files":1,"time":1409605424,"description":"This is a direct re-encode of docfester's torrent @ http://thepiratebay.se/torrent/10938098/Doctor_Who__Earth_Conquest_(2014)\n\nThe source video was untouched except for re-encoding to mp4 at the exact same odd sizing 720:480, but I forced the correct 16:9 aspect ratio. I believe this is mostly of the same quality as docfester's original, without all the extra amount to download. Any weird video artifacts in the original source would of course still be present. Enjoy\n\n*/INFO: (From docfester)\n\nDoctor Who: Earth Conquest is a one-hour special following the stars Peter Capaldi and Jenna Coleman on Doctor Who: The World Tour. It sees them visiting seven cities across five continents in 12 days to publicize the upcoming season. The tour launched in Cardiff, Wales on August 7 and went through London (UK), Seoul (South Korea), Sydney (Australia), New York (U.S.), Mexico City (Mexico) and Rio de Janeiro (Brazil)\n\nPlease be gentile with me as this is my first video capture for upload using a who new system! \n/* INFO\n\nThis file:\nVideo\nFormat/Info                              : Advanced Video Codec\nFormat profile                           : &lt;a class=&quot;__cf_email__&quot; href=&quot;/cdn-cgi/l/email-protection&quot; data-cfemail=&quot;5a173b33341a1668746a&quot;&gt;[email&amp;#160;protected]&lt;/a&gt;&lt;script cf-hash='f9e31' type=&quot;text/javascript&quot;&gt;\n/* &lt;![CDATA[ */!function(){try{var t=&quot;currentScript&quot;in document?document.currentScript:function(){for(var t=document.getElementsByTagName(&quot;script&quot;),e=t.length;e--;)if(t[e].getAttribute(&quot;cf-hash&quot;))return t[e]}();if(t&amp;&amp;t.previousSibling){var e,r,n,i,c=t.previousSibling,a=c.getAttribute(&quot;data-cfemail&quot;);if(a){for(e=&quot;&quot;,r=parseInt(a.substr(0,2),16),n=2;a.length-n;n+=2)i=parseInt(a.substr(n,2),16)^r,e+=String.fromCharCode(i);e=document.createTextNode(e),c.parentNode.replaceChild(e,c)}}}catch(u){}}();/* ]]&gt; */&lt;/script&gt;\nFormat settings, CABAC                   : Yes\nFormat settings, ReFrames                : 4 frames\nCodec ID                                 : avc1\nCodec ID/Info                            : Advanced Video Coding\nDuration                                 : 43mn 30s\nBit rate                                 : 815 Kbps\nWidth                                    : 720 pixels\nHeight                                   : 480 pixels\nDisplay aspect ratio                     : 16:9\nOriginal display aspect ratio            : 16:9\nFrame rate mode                          : Constant\nFrame rate                               : 29.970 fps\nStandard                                 : NTSC\nColor space                              : YUV\nChroma subsampling                       : 4:2:0\nBit depth                                : 8 bits\nScan type                                : Progressive\nBits/(Pixel*Frame)                       : 0.079\nStream size                              : 254 MiB (86%)\n\nAudio\nID                                       : 2\nFormat                                   : AAC\nFormat/Info                              : Advanced Audio Codec\nFormat profile                           : Main\nCodec ID                                 : 40\nDuration                                 : 43mn 30s\nBit rate mode                            : Constant\nBit rate                                 : 128 Kbps\nChannel(s)                               : 2 channels\nChannel positions                        : Front: L R\nSampling rate                            : 44.1 KHz\nCompression mode                         : Lossy\nDelay relative to video                  : 67ms\nStream size                              : 39.8 MiB (13%)\n\n","torrent":{"xt":"urn:btih:561758173df4ea731203d6c2f88a6563aba60cc3","amp;dn":"Doctor+Who%3A+Earth+Conquest+%282014%29+%5BRecode+of+docfester+source%5D","amp;tr":["udp%3A%2F%2Ftracker.openbittorrent.com%3A80","udp%3A%2F%2Fopen.demonii.com%3A1337","udp%3A%2F%2Ftracker.coppersurfer.tk%3A6969","udp%3A%2F%2Fexodus.desync.com%3A6969"],"infoHash":"561758173df4ea731203d6c2f88a6563aba60cc3","infoHashBuffer":{"type":"Buffer","data":[86,23,88,23,61,244,234,115,18,3,214,194,248,138,101,99,171,166,12,195]},"announce":[],"urlList":[]}}